<svg xmlns="http://www.w3.org/2000/svg" viewBox="0 0 300 300"><defs><style>.cls-1{fill:#ffd376;}.cls-2{fill:#3a515f;}.cls-3{fill:#859ca6;}.cls-4,.cls-5{fill:none;stroke:#3a515f;stroke-linecap:round;stroke-linejoin:round;}.cls-4{stroke-width:2px;}.cls-5{stroke-width:6px;}</style></defs><g id="Camada_2" data-name="Camada 2"><rect class="cls-1" width="300" height="300"/></g><g id="Camada_1" data-name="Camada 1"><g id="Maximizada"><path class="cls-2" d="M58.37,154.86a15.91,15.91,0,0,1-14.24,8.88c-7.76,0-15.58-4.52-15.58-13.51V136.6c0-8.94,7.82-13.52,15.75-13.52a14.68,14.68,0,0,1,13.91,9.11l-8.16,3.29c-2.68-4.91-11.5-3.8-11.5,1.12v13.63c0,4.74,8.93,6.08,11.11.61Z"/><path class="cls-2" d="M62,123.64H72.06V153.3H88.14v9.88H62Z"/><path class="cls-2" d="M101.44,150c0,6.36,11.28,6.36,11.33,0V123.64h10.11V150c0,18.54-31.61,18.54-31.55,0V123.64h10.11Z"/><path class="cls-2" d="M153.43,142.13A10,10,0,0,1,159,153c-1,6.37-5.31,10.22-14.07,10.22H128.81V123.64h15.86c7.54,0,13.06,4.52,12.84,12.06A8,8,0,0,1,153.43,142.13Zm-8.76-3a3.52,3.52,0,1,0,0-7h-5.81v7Zm0,15.3c6,0,5.92-8.1,0-8.1h-5.81v8.1Z"/><path class="cls-2" d="M173.77,139.17h16v8.65h-16v5.92h17.42v9.44H163.66V123.64h27.53V133H173.77Z"/><path class="cls-3" d="M59.91,188.42h-11v31.79H47.76V188.42h-11v-1.16H59.91Z"/><path class="cls-3" d="M98.91,196c0-6,5.87-9.22,11.68-9.22,4.15,0,8.29,1.59,10.24,4.75l-1,.75c-1.72-2.84-5.59-4.38-9.36-4.38-5.12,0-10.37,2.7-10.37,8.1v15.45c0,5.4,5.25,8,10.37,8,3.73,0,7.54-1.35,9.36-4.14l1,.51c-2,3.17-6.19,4.8-10.38,4.8-5.72,0-11.54-3.12-11.54-9.22Z"/><path class="cls-3" d="M160.44,196c0-6,5.87-9.22,11.68-9.22,4.15,0,8.29,1.59,10.24,4.75l-1,.75c-1.72-2.84-5.59-4.38-9.36-4.38-5.12,0-10.37,2.7-10.37,8.1v15.45c0,5.4,5.25,8,10.37,8,3.73,0,7.54-1.35,9.36-4.14l1,.51c-2,3.17-6.19,4.8-10.38,4.8-5.72,0-11.54-3.12-11.54-9.22Z"/><path class="cls-3" d="M103.74,168.82c2.31,0,4.24,1,4.24,3.54v6.12c0,2.48-1.93,3.52-4.24,3.52H99.29V168.82Zm0,12.72c2.08,0,3.78-.88,3.78-3.06v-6.12c0-2.2-1.7-3.07-3.78-3.07h-4v12.25Z"/><path class="cls-3" d="M110.93,172.36c0-2.48,2.43-3.72,4.89-3.72s4.92,1.24,4.92,3.72v6.09c0,2.47-2.46,3.74-4.92,3.74s-4.89-1.27-4.89-3.74Zm.46,6.09c0,2.19,2.2,3.27,4.43,3.27s4.45-1.08,4.45-3.27v-6.09c0-2.31-2.25-3.28-4.47-3.28s-4.41,1-4.41,3.28Z"/><path class="cls-4" d="M264.38,154.62s20.12,14.37,1,41.37-7.52,37.07-7.52,37.07"/><rect class="cls-4" x="250.62" y="233.06" width="13.08" height="7.53"/><path class="cls-4" d="M253.33,240.43l8.42.39-.66,1.94.78,3.87-.78,5.43.67,4.27-1.44-1.16-.56,2.61-1.55-4.66-1,3.6-1.56-2.33v3.88l-1.56-3.1-.78,1.16h-.77c-.11-1.85,0-5.65.78-7.37l-.78-4.54Z"/><path class="cls-5" d="M106.74,114.6l-11.63-9.51L131.9,77.52S218,79.85,235.08,159.75L209.81,198.9l-16.62-14.32"/><polyline class="cls-5" points="124.72 82.91 95.11 41.73 242.06 60.15 269.21 176.82 229.49 168.41"/></g></g></svg>