<svg xmlns="http://www.w3.org/2000/svg" viewBox="0 0 320.23 283.14"><defs><style>.cls-1{font-size:72px;fill:#3a515f;font-family:UniSansHeavyCAPS, Uni Sans;}.cls-2{letter-spacing:-0.01em;}.cls-3{font-size:60px;}.cls-3,.cls-4{fill:#859ca6;font-family:UniSansThinCAPS, Uni Sans;}.cls-4{font-size:24px;}.cls-5,.cls-6,.cls-7{fill:none;stroke:#fbb03b;stroke-linecap:round;stroke-linejoin:round;}.cls-5{stroke-width:3px;}.cls-6{stroke-width:2px;}.cls-7{stroke-width:6px;}</style></defs><g id="Camada_2" data-name="Camada 2"><g id="Coloração"><g id="Coloração_1" data-name="Coloração 1"><g id="Maximizada"><text class="cls-1" transform="translate(0 159.56)">C<tspan class="cls-2" x="41.9" y="0">L</tspan><tspan x="79.99" y="0">UBE</tspan></text><text class="cls-3" transform="translate(12.09 233.08)"><tspan xml:space="preserve">T   C   C</tspan></text><text class="cls-4" transform="translate(91.76 183.82)">Do</text><path class="cls-5" d="M306.81,148.52s25.94,18.53,1.3,53.33-9.69,47.79-9.69,47.79"/><rect class="cls-5" x="289.07" y="249.64" width="16.86" height="9.71"/><polygon class="cls-6" points="292.57 259.14 303.43 259.64 302.57 262.14 303.57 267.14 302.57 274.14 303.43 279.64 301.58 278.14 300.86 281.5 298.85 275.5 297.58 280.14 295.58 277.14 295.58 282.14 293.58 278.14 292.57 279.64 291.58 279.64 291.57 273.93 292.57 270.14 291.57 264.29 292.57 259.14"/><path class="cls-7" d="M103.6,96.94l-15-12.26L136,49.14s111,3,133,106L236.47,205.6,215,187.14"/><polyline class="cls-7" points="126.77 56.09 88.61 3 278.04 26.75 313.04 177.14 261.84 166.3"/></g></g></g></g></svg>