<svg xmlns="http://www.w3.org/2000/svg" viewBox="0 0 320.23 282.64"><defs><style>.cls-1{font-size:72px;font-family:UniSansHeavyCAPS, Uni Sans;}.cls-2{letter-spacing:-0.01em;}.cls-3{font-size:60px;}.cls-3,.cls-4{font-family:UniSansThinCAPS, Uni Sans;}.cls-4{font-size:24px;}.cls-5,.cls-6,.cls-7{fill:none;stroke:#000;stroke-linecap:round;stroke-linejoin:round;}.cls-5{stroke-width:5px;}.cls-6{stroke-width:3px;}.cls-7{stroke-width:2px;}</style></defs><g id="Camada_2" data-name="Camada 2"><g id="Camada_3" data-name="Camada 3"><text class="cls-1" transform="translate(0 159.06)">C<tspan class="cls-2" x="41.9" y="0">L</tspan><tspan x="79.99" y="0">UBE</tspan></text><text class="cls-3" transform="translate(12.09 232.58)"><tspan xml:space="preserve">T   C   C</tspan></text><text class="cls-4" transform="translate(91.76 183.32)">Do</text><path class="cls-5" d="M103.6,96.44l-15-12.26L136,48.64s111,3,133,106L236.47,205.1,215,186.64"/><polyline class="cls-5" points="126.77 55.59 88.61 2.5 278.04 26.25 313.04 176.64 261.84 165.8"/><path class="cls-6" d="M306.81,148s25.94,18.53,1.3,53.33-9.69,47.79-9.69,47.79"/><rect class="cls-6" x="289.07" y="249.14" width="16.86" height="9.71"/><polygon class="cls-7" points="292.57 258.64 303.43 259.14 302.57 261.64 303.57 266.64 302.58 273.64 303.43 279.14 301.58 277.64 300.86 281 298.85 275 297.58 279.64 295.58 276.64 295.58 281.64 293.58 277.64 292.57 279.14 291.58 279.14 291.58 273.43 292.57 269.64 291.57 263.79 292.57 258.64"/></g></g></svg>