<svg xmlns="http://www.w3.org/2000/svg" viewBox="0 0 251.09 152.57"><defs><style>.cls-1{font-size:72px;font-family:UniSansHeavyCAPS, Uni Sans;}.cls-2{letter-spacing:-0.01em;}.cls-3{font-size:60px;}.cls-3,.cls-4{font-family:UniSansThinCAPS, Uni Sans;}.cls-4{font-size:24px;}.cls-5,.cls-6,.cls-7{fill:none;stroke:#000;stroke-linecap:round;stroke-linejoin:round;}.cls-5{stroke-width:2px;}.cls-7{stroke-width:0.5px;}</style></defs><g id="Camada_2" data-name="Camada 2"><g id="Camada_4" data-name="Camada 4"><text class="cls-1" transform="translate(0 86.12)">C<tspan class="cls-2" x="41.9" y="0">L</tspan><tspan x="79.99" y="0">UBE</tspan></text><text class="cls-3" transform="translate(83.22 137.64)">T C C</text><text class="cls-4" transform="translate(2.76 110.38)">Do</text><path class="cls-5" d="M182.24,30.74l-4.74-3.88,15-11.25s35.14.95,42.1,33.55l-10.31,16-6.78-5.84"/><polyline class="cls-5" points="189.58 17.8 177.5 1 237.46 8.52 248.54 56.12 232.33 52.69"/><path class="cls-6" d="M246.71,47.45s8.28,5.75.63,16.87-2.87,15.17-2.87,15.17"/><rect class="cls-6" x="241.47" y="79.49" width="5.34" height="3.07" transform="translate(-0.15 0.44) rotate(-0.1)"/><polygon class="cls-7" points="242.58 82.5 246.02 82.65 245.75 83.44 246.07 85.02 245.76 87.24 246.03 88.98 245.44 88.5 245.22 89.57 244.58 87.67 244.18 89.14 243.54 88.19 243.55 89.78 242.91 88.51 242.59 88.98 242.28 88.99 242.28 87.18 242.59 85.98 242.27 84.12 242.58 82.5"/></g></g></svg>