<svg xmlns="http://www.w3.org/2000/svg" viewBox="0 0 248.28 138.74"><defs><style>.cls-1{fill:#ddd;}.cls-2{fill:#f2f0f0;}.cls-3,.cls-4,.cls-5{fill:none;stroke:#ffd376;stroke-linecap:round;stroke-linejoin:round;}.cls-3{stroke-width:3px;}.cls-5{stroke-width:0.75px;}</style></defs><g id="Camada_2" data-name="Camada 2"><g id="Coloração"><path class="cls-1" d="M38.45,75.89A20.51,20.51,0,0,1,20.09,87.34C10.08,87.34,0,81.51,0,69.91V52.34C0,40.82,10.08,34.92,20.31,34.92c6.26,0,13.82,2.66,17.93,11.74L27.72,50.9C24.27,44.57,12.89,46,12.89,52.34V69.91c0,6.12,11.52,7.85,14.33.8Z"/><path class="cls-1" d="M43.13,35.64h13V73.87H76.83V86.62H43.13Z"/><path class="cls-1" d="M94,69.55c0,8.21,14.54,8.21,14.62,0V35.64h13V69.55c-.07,23.91-40.76,23.91-40.68,0V35.64H94Z"/><path class="cls-1" d="M161,59.47a12.92,12.92,0,0,1,7.2,14c-1.29,8.21-6.84,13.18-18.14,13.18H129.24v-51h20.45c9.72,0,16.85,5.83,16.56,15.55A10.26,10.26,0,0,1,161,59.47Zm-11.3-3.88c6.26,0,6.48-9.08,0-9.08H142.2v9.08Zm0,19.72c7.77,0,7.63-10.44,0-10.44H142.2V75.31Z"/><path class="cls-1" d="M187.2,55.66h20.66V66.82H187.2v7.63h22.46V86.62H174.17v-51h35.49v12.1H187.2Z"/><path class="cls-2" d="M111.55,97.16H97.39v41h-1.5v-41H81.73v-1.5h29.82Z"/><path class="cls-2" d="M132.31,106.94c0-7.8,7.56-11.88,15.06-11.88,5.34,0,10.68,2,13.2,6.12l-1.32,1c-2.22-3.66-7.2-5.64-12.06-5.64-6.6,0-13.38,3.48-13.38,10.44v19.92c0,7,6.78,10.38,13.38,10.38,4.8,0,9.72-1.74,12.06-5.34l1.32.66c-2.52,4.07-8,6.18-13.38,6.18-7.38,0-14.88-4-14.88-11.88Z"/><path class="cls-2" d="M182.11,106.94c0-7.8,7.56-11.88,15.06-11.88,5.34,0,10.68,2,13.2,6.12l-1.32,1c-2.22-3.66-7.2-5.64-12.06-5.64-6.6,0-13.38,3.48-13.38,10.44v19.92c0,7,6.78,10.38,13.38,10.38,4.8,0,9.72-1.74,12.06-5.34l1.32.66c-2.52,4.07-8,6.18-13.38,6.18-7.38,0-14.88-4-14.88-11.88Z"/><path class="cls-2" d="M7.92,93.89c3,0,5.48,1.34,5.48,4.56v7.89c0,3.2-2.5,4.54-5.48,4.54H2.19v-17Zm0,16.39c2.69,0,4.88-1.13,4.88-3.94V98.45c0-2.83-2.19-4-4.88-4H2.79v15.79Z"/><path class="cls-2" d="M17.19,98.45c0-3.19,3.14-4.8,6.31-4.8s6.34,1.61,6.34,4.8v7.85c0,3.19-3.17,4.82-6.34,4.82s-6.31-1.63-6.31-4.82Zm.6,7.85c0,2.83,2.83,4.22,5.71,4.22s5.74-1.39,5.74-4.22V98.45c0-3-2.91-4.23-5.76-4.23s-5.69,1.3-5.69,4.23Z"/><path class="cls-3" d="M179.44,31.24l-4.75-3.88,15-11.25s35.14.95,42.1,33.55l-10.31,16-6.78-5.84"/><polyline class="cls-3" points="186.77 18.3 174.69 1.5 234.65 9.02 245.73 56.62 229.53 53.19"/><path class="cls-4" d="M243.9,48s8.29,5.75.63,16.87S241.67,80,241.67,80"/><rect class="cls-4" x="238.66" y="79.99" width="5.34" height="3.07" transform="translate(-0.15 0.44) rotate(-0.1)"/><polygon class="cls-5" points="239.78 83 243.21 83.15 242.94 83.94 243.26 85.52 242.95 87.74 243.22 89.48 242.63 89 242.41 90.07 241.77 88.17 241.37 89.64 240.74 88.69 240.74 90.28 240.1 89.01 239.78 89.48 239.47 89.49 239.47 87.68 239.78 86.48 239.46 84.62 239.78 83"/></g></g></svg>