<svg xmlns="http://www.w3.org/2000/svg" viewBox="0 0 251.09 153.07"><defs><style>.cls-1{font-size:72px;fill:#3a515f;font-family:UniSansHeavyCAPS, Uni Sans;}.cls-2{letter-spacing:-0.01em;}.cls-3{font-size:60px;}.cls-3,.cls-4{fill:#859ca6;font-family:UniSansThinCAPS, Uni Sans;}.cls-4{font-size:24px;}.cls-5,.cls-6,.cls-7{fill:none;stroke:#fbb03b;stroke-linecap:round;stroke-linejoin:round;}.cls-5{stroke-width:3px;}.cls-7{stroke-width:0.75px;}</style></defs><g id="Camada_2" data-name="Camada 2"><g id="Coloração"><g id="Coloração_1" data-name="Coloração 1"><g id="Minimizada"><text class="cls-1" transform="translate(0 86.62)">C<tspan class="cls-2" x="41.9" y="0">L</tspan><tspan x="79.99" y="0">UBE</tspan></text><text class="cls-3" transform="translate(83.22 138.14)">T C C</text><text class="cls-4" transform="translate(2.76 110.88)">Do</text><path class="cls-5" d="M182.24,31.24l-4.74-3.88,15-11.25s35.14.95,42.1,33.55l-10.31,16-6.78-5.84"/><polyline class="cls-5" points="189.58 18.3 177.5 1.5 237.46 9.02 248.54 56.62 232.33 53.19"/><path class="cls-6" d="M246.71,48s8.28,5.75.63,16.87S244.47,80,244.47,80"/><rect class="cls-6" x="241.47" y="79.99" width="5.34" height="3.07" transform="translate(-0.15 0.44) rotate(-0.1)"/><polygon class="cls-7" points="242.58 83 246.02 83.15 245.75 83.94 246.07 85.52 245.76 87.74 246.03 89.48 245.44 89 245.22 90.07 244.58 88.17 244.18 89.64 243.54 88.69 243.55 90.28 242.91 89.01 242.59 89.48 242.28 89.49 242.28 87.68 242.59 86.48 242.27 84.62 242.58 83"/></g></g></g></g></svg>