<?xml version="1.0" encoding="utf-8"?>
<!-- Generator: Adobe Illustrator 25.0.0, SVG Export Plug-In . SVG Version: 6.00 Build 0)  -->
<svg version="1.1" xmlns="http://www.w3.org/2000/svg" xmlns:xlink="http://www.w3.org/1999/xlink" x="0px" y="0px"
	 viewBox="0 0 370 357" style="enable-background:new 0 0 370 357;" xml:space="preserve">
<g id="Camada_2">
</g>
<g id="Camada_1">
	<g>
		<path d="M97.82,98.69c4.27-3.79,9.04-5.19,13.52-6.52c14.01-4.15,26.82-11.2,40.53-16.06c11.88-4.21,23.66-8.72,35.47-13.13
			c1.86-0.7,3.8-1.33,5.48-2.35c3.6-2.19,4.82-5.61,3.36-9.46c-1.53-4.02-6.17-6.46-9.74-5.09c-13.97,5.4-28.42,9.45-42.12,15.68
			c-10.97,4.99-22.65,8.41-33.8,13.02c-10.06,4.16-20.12,8.41-29.55,13.91c-10.05,5.87-15.8,14.72-18.28,26.06
			c-1.17,5.34-1.75,10.75-2.76,16.1c-0.42,2.2-0.09,3.92,1.87,5.69c8,7.28,8.35,17.62,0.97,25.58c-1.81,1.95-2.42,3.98-1.86,6.36
			c3.01,12.73,2.95,25.66,2.91,38.62c-0.01,3.32-0.77,4.78-4.44,4.69c-9.32-0.22-18.66-0.18-27.98-0.01
			c-3.18,0.06-3.58-1.39-2.24-3.51c3.73-5.9,6.25-12.31,8.81-18.76c2.47-6.23,2.65-12.93,4.71-19.22c0.84-2.55-1.07-4.32-2.83-5.96
			c-10.07-9.44-9.82-21.35,0.88-29.78c2.26-1.78,2.97-3.49,3.09-6.2c0.62-13.95,4.29-27.02,12.06-38.75
			c1.76-2.66,2.32-3.9-1.66-5.02c-11.25-3.17-22.02-7.84-33.3-11.04c-3.24-0.92-5.22-3.85-5.04-7.3c0.18-3.42,2.3-5.41,5.78-6.53
			c15.11-4.84,30.12-9.98,45.19-14.97c17.3-5.73,34.63-11.38,51.92-17.14c12.73-4.24,25.41-8.59,38.11-12.89
			c8.65-2.93,17.34-5.72,25.92-8.82c6.14-2.22,11.68-0.29,17.36,1.65c15.01,5.12,30.06,10.12,45.08,15.21
			c13.25,4.49,26.46,9.12,39.73,13.55c10.77,3.59,21.66,6.87,32.42,10.48c13.45,4.51,26.8,9.32,40.26,13.8
			c3.75,1.25,3.98,3.83,3.99,7.03c0.01,3.31-1.82,4.56-4.63,5.55c-22.85,7.97-45.84,15.5-68.85,22.99
			c-21.94,7.14-43.73,14.76-65.59,22.14c-7.55,2.55-15.36,4.48-22.62,7.68c-9.48,4.17-18.15,1.91-26.85-1.72
			c-1.68-0.7-3.34-1.32-5.06-1.88c-22.03-7.19-44.05-14.42-66.06-21.68C100.74,100.27,99.62,99.56,97.82,98.69z"/>
		<path d="M137.61,240.66c6.05-6.87,13.17-11.69,20.77-15.65c6.2-3.23,13.31-3.97,20.13-5.22c9.69-1.77,19.55-1.24,29.34-1.01
			c5.94,0.14,11.76,1.38,17.51,3.15c4.67,1.44,4.97,4.07,3.4,7.94c-2.95,7.3-5.78,14.65-8.7,21.96c-1.22,3.06-1.8,6.87-3.99,8.91
			c-2.87,2.68-5.81-1.61-9.03-1.89c-5.28-0.45-10.5-1.54-15.84-1.19c-7.45,0.48-15.28,3.82-17.35,14.09
			c-1.37,6.81-3.27,13.58-3.93,20.46c-1.26,13,1.79,16.25,14.61,17.46c7.09,0.67,13.89-1.03,20.65-2.51
			c3.53-0.77,4.54,0.29,4.94,3.3c0.11,0.82,0.55,1.63,0.51,2.42c-0.57,9.16,0.87,18.24,1.13,27.36c0.12,4.28-1.87,5.53-5.69,6.54
			c-5.99,1.58-12.12,2.23-18.15,2.61c-14.28,0.9-28.49,0.56-42.04-5.49c-13.28-5.93-22.98-19.9-23.18-34.33
			c-0.19-13.88,3.39-27.21,5.4-40.78c1.66-11.17,4.64-10.04-8.01-10.12c-4.83-0.03-9.7,0.37-14.48-0.11
			c-4.53-0.46-6.16,1.54-6.82,5.54c-1.59,9.62-3.04,19.29-5.1,28.82c-3.35,15.51-4.6,31.38-8.68,46.77
			c-2.34,8.83-1.91,8.94-10.88,8.94c-10.49,0-20.99-0.12-31.48,0.07c-3.68,0.07-4.61-1.11-3.92-4.66
			c2.94-15.09,5.76-30.21,8.49-45.34c2.22-12.35,4.27-24.73,6.35-37.11c0.55-3.26-1.88-2.9-3.85-2.91
			c-8.49-0.02-16.99-0.11-25.48,0.04c-3.48,0.06-4.54-0.55-3.69-4.51c2.15-10.02,3.63-20.18,5.36-30.29
			c0.52-3.04,1.98-4.33,5.38-4.32c34.98,0.13,69.96,0.12,104.93,0.03c3.82-0.01,5.04,1.02,4.13,4.97
			C139.1,229.89,138.49,235.3,137.61,240.66z"/>
		<path d="M299.62,138.85c0,6.5-0.26,13,0.06,19.49c0.53,11.02-5.58,18.07-13.86,23.73c-16.94,11.57-36.29,16.31-56.19,19.68
			c-17.95,3.04-36.02,3.61-54.09,2.82c-18.7-0.82-37.25-3.51-55.18-9.17c-11.9-3.76-23.34-8.58-32.77-17.22
			c-2.32-2.12-2.89-3.65-0.91-6.6c8.21-12.31,6.69-25.63-3.6-36.03c-1.81-1.82-4.58-3.2-4.31-6.36c0.44-5.1,0.86-10.24,2.52-15.12
			c0.4-1.17,1.7-1.37,3-0.92c14.54,5.07,29.05,10.21,43.64,15.14c14.59,4.93,29.24,9.7,43.89,14.44c4.85,1.57,9.47,3.61,14.76,4.19
			c9.15,1.01,16.8-3.39,24.93-5.8c13.16-3.9,26-8.83,39.04-13.16c14.78-4.91,29.71-9.42,44.39-14.59c4.47-1.58,4.77-0.07,4.72,3.51
			C299.54,124.19,299.62,131.52,299.62,138.85z"/>
		<path d="M290.16,218.73c8.04-0.88,17.28,0.67,26.31,3.91c2.35,0.84,4.62,1.42,3.3,4.68c-4.25,10.56-8.6,21.07-12.71,31.69
			c-1,2.57-2.03,2.75-4.41,1.76c-9.02-3.75-18.44-3.96-27.81-1.86c-4.88,1.09-9.11,4.11-10.13,9.33
			c-1.97,10.03-4.48,19.96-5.2,30.25c-0.4,5.75,3.69,9,8.76,10.16c9,2.07,17.79,0.69,26.56-1.22c5.52-1.2,5.98-1.13,5.72,4.31
			c-0.45,9.66,0.79,19.23,1.16,28.84c0.16,4.17-1.63,5.37-5.25,6.12c-12.42,2.56-25,4-37.57,2.81
			c-17.12-1.63-32.97-6.37-42.03-23.08c-4.29-7.92-5.03-16.58-4.06-25.18c1.59-14.12,3.84-28.2,7.24-41.99
			c4.95-20.09,18.68-31.83,37.98-37.57C268,218.72,278.3,218.61,290.16,218.73z"/>
		<path d="M16.74,226.16c0,1.55,0.04,3.76-0.01,5.96c-0.04,1.66-0.24,3.83-2,3.98c-1.31,0.11-3.06-1.19-4.08-2.34
			c-1.68-1.89,0.51-2.92,1.55-3.93C13.67,228.39,15.41,227.21,16.74,226.16z"/>
	</g>
</g>
</svg>
